HIERARCHY
ROOT Hips
{
	OFFSET 0.00000 0.00000 0.00000
	CHANNELS 6 Xposition Yposition Zposition Zrotation Yrotation Xrotation 
	JOINT LHipJoint
	{
		OFFSET 0 0 0
		CHANNELS 3 Zrotation Yrotation Xrotation
		JOINT LeftHip
		{
			OFFSET 1.38280 -1.96574 0.54427
			CHANNELS 3 Zrotation Yrotation Xrotation
			JOINT LeftKnee
			{
				OFFSET 2.72096 -7.47578 0.00000
				CHANNELS 3 Zrotation Yrotation Xrotation
				JOINT LeftAnkle
				{
					OFFSET 2.73041 -7.50176 0.00000
					CHANNELS 3 Zrotation Yrotation Xrotation
					JOINT LeftToe
					{
						OFFSET 0.16150 -0.44371 2.18031
						CHANNELS 3 Zrotation Yrotation Xrotation
						End Site
						{
							OFFSET 0.00000 -0.00000 1.12127
						}
					}
				}
			}
		}
	}
	JOINT RHipJoint
	{
		OFFSET 0 0 0
		CHANNELS 3 Zrotation Yrotation Xrotation
		JOINT RightHip
		{
			OFFSET -1.57224 -1.96575 0.54427
			CHANNELS 3 Zrotation Yrotation Xrotation
			JOINT RightKnee
			{
				OFFSET -2.95935 -8.13076 0.00000
				CHANNELS 3 Zrotation Yrotation Xrotation
				JOINT RightAnkle
				{
					OFFSET -2.52345 -6.93311 0.00000
					CHANNELS 3 Zrotation Yrotation Xrotation
					JOINT RightToe
					{
						OFFSET -0.04475 -0.10171 1.86688
						CHANNELS 3 Zrotation Yrotation Xrotation
						End Site
						{
							OFFSET -0.00000 -0.00000 0.95157
						}
					}
				}
			}
		}
	}
	JOINT lowerback
	{
		OFFSET 0 0 0
		CHANNELS 3 Zrotation Yrotation Xrotation
		JOINT Chest
		{
			OFFSET 0.00669 2.07367 0.09104
			CHANNELS 3 Zrotation Yrotation Xrotation
			JOINT Chest2
			{
				OFFSET -0.00664 2.06198 -0.04732
				CHANNELS 3 Zrotation Yrotation Xrotation
				JOINT lowerneck
				{
					OFFSET 0 0 0
					CHANNELS 3 Zrotation Yrotation Xrotation
					JOINT Neck
					{
						OFFSET -0.00021 1.49948 0.16345
						CHANNELS 3 Zrotation Yrotation Xrotation
						JOINT Head
						{
							OFFSET 0.06080 1.50567 -0.26702
							CHANNELS 3 Zrotation Yrotation Xrotation
							End Site
							{
								OFFSET 0.01726 1.56470 -0.11854
							}
						}
					}
				}
				JOINT LeftCollar
				{
					OFFSET 0 0 0
					CHANNELS 3 Zrotation Yrotation Xrotation
					JOINT LeftShoulder
					{
						OFFSET 3.14993 0.82932 -0.22488
CHANNELS 3 Zrotation Xrotation Yrotation
						JOINT LeftElbow
						{
OFFSET 0 -5.682360 -0.000000
CHANNELS 3 Zrotation Xrotation Yrotation
							JOINT LeftWrist
							{
OFFSET 0 -3.171120 0.000000
CHANNELS 3 Zrotation Xrotation Yrotation
								JOINT lhand
								{
									OFFSET 0 0 0
CHANNELS 3 Zrotation Xrotation Yrotation
									JOINT LFingers
									{
OFFSET 0 -0.632690 0.000000
CHANNELS 3 Zrotation Xrotation Yrotation
										End Site
										{
OFFSET 0 -0.510090 0.000000
										}
									}
								}
								JOINT LThumb
								{
OFFSET 0 0.000000 0.000000
CHANNELS 3 Zrotation Xrotation Yrotation
									End Site
									{
OFFSET 0 -0.517880 0.517880
									}
								}
							}
						}
					}
				}
				JOINT RightCollar
				{
					OFFSET 0 0 0
					CHANNELS 3 Zrotation Yrotation Xrotation
					JOINT RightShoulder
					{
						OFFSET -3.10571 0.91279 -0.33334
CHANNELS 3 Zrotation Xrotation Yrotation
						JOINT RightElbow
						{
OFFSET 0 -5.871200 -0.000000
CHANNELS 3 Zrotation Xrotation Yrotation
							JOINT RightWrist
							{
OFFSET 0 -3.375890 0.000000
CHANNELS 3 Zrotation Xrotation Yrotation
								JOINT rhand
								{
									OFFSET 0 0 0
CHANNELS 3 Zrotation Xrotation Yrotation
									JOINT RFingers
									{
OFFSET 0 -0.603260 0.000000
CHANNELS 3 Zrotation Xrotation Yrotation
										End Site
										{
OFFSET 0 -0.486360 0.000000
										}
									}
								}
								JOINT RThumb
								{
OFFSET 0 0.000000 0.000000
CHANNELS 3 Zrotation Xrotation Yrotation
									End Site
									{
OFFSET 0 -0.493790 0.493790
									}
								}
							}
						}
					}
				}
			}
		}
	}
}
MOTION
Frames: 8
Frame Time: 0.008333333333333333
11.973400 18.429800 -1.815000 152.484000 -86.858400 -143.047000 0.000000 0.000000 0.000000 -20.389300 -9.156700 -13.081500 2.342100 9.545000 27.515500 1.287400 -4.367900 -20.453900 0.538800 -4.703200 -13.063800 0.000000 0.000000 0.000000 19.425900 9.848500 -16.221800 -2.584300 -9.989700 28.943300 0.230300 11.447300 -4.031600 -1.421400 -7.539400 21.323700 -1.382400 -0.071000 -8.495200 1.074800 -0.015600 1.239700 1.899700 -0.076600 6.069300 -3.049800 0.087800 -16.833000 0.668500 0.705600 16.879200 0.802000 0.178600 7.986800 0.000000 0.000000 0.000000 1.624600 -1.769800 -36.347000 17.574200 -27.608500 4.350100 17.355200 -5.155100 -32.914500 0.000000 0.000000 0.000000 -7.125000 0.000000 0.000000 -18.453400 63.197700 8.294500 0.000000 0.000000 0.000000 -1.813900 -0.002000 11.824800 -18.804100 -29.174500 -4.935000 -18.144600 8.247400 -29.782700 0.000000 0.000000 0.000000 7.125000 0.000000 -0.000000 7.410000 -0.849600 7.582400
11.852947 18.344482 -2.183373 93.533696 -87.853935 -83.617744 0.000000 0.000000 0.000000 -19.038484 -6.686844 -24.835813 5.526480 13.952840 43.049819 0.969544 -2.842656 -17.871241 1.291367 -7.200241 -20.310123 0.000000 0.000000 0.000000 20.230097 9.394043 -17.149939 -2.933279 -10.586308 30.897037 0.170729 12.397086 -6.164914 -1.533860 -7.818939 22.165575 0.011705 0.184401 -7.161339 1.280574 0.167959 1.624867 1.346924 0.057485 5.709512 -3.055170 -0.458038 -16.658915 0.401979 0.020683 15.403843 0.631815 -0.148889 7.481946 0.000000 0.000000 0.000000 1.909208 -0.396933 -36.384568 18.460302 -28.742533 4.768512 20.409832 -3.865756 -32.725443 0.000000 0.000000 0.000000 -7.125000 0.000000 0.000000 -14.814066 63.827414 6.835559 0.000000 0.000000 0.000000 -6.903668 -0.038021 17.040950 -25.811368 -37.021101 -8.774078 -19.496080 2.740193 -28.885481 0.000000 0.000000 0.000000 7.125000 0.000000 0.000000 6.522351 -0.185452 6.586190
11.522501 18.360308 -2.446308 64.039839 -86.678687 -53.545136 0.000000 0.000000 0.000000 -17.911039 -10.167773 -32.434647 5.288712 13.701139 42.054286 0.875224 -0.691349 -17.462215 1.487499 -7.701079 -21.811875 0.000000 0.000000 0.000000 20.553926 9.184928 -15.851499 -2.730486 -10.245263 29.774855 0.058239 12.673317 -8.103149 -1.391806 -7.463576 21.096440 -0.000402 0.447459 -7.088334 1.229993 0.519909 1.970633 1.345922 0.229055 6.023576 -3.326835 -0.764627 -16.592783 1.001981 -0.473153 17.172892 0.822044 -0.368359 8.067766 0.000000 0.000000 0.000000 2.451431 0.677399 -35.631290 17.749124 -27.834678 4.431563 19.969615 -4.349327 -32.927397 0.000000 0.000000 0.000000 -7.125000 0.000000 0.000000 -15.493041 63.903969 7.183736 0.000000 0.000000 0.000000 -9.073042 -1.167978 18.152268 -33.445758 -43.669167 -13.729150 -22.111954 -2.930004 -27.983209 0.000000 0.000000 0.000000 7.125000 0.000000 0.000000 4.876377 0.240090 4.873530
10.977091 18.479041 -2.590890 74.879641 -86.729825 -63.676992 0.000000 0.000000 0.000000 -16.272053 -14.107088 -34.671931 2.078467 9.026902 25.879875 0.730014 1.516425 -16.757657 1.116697 -6.705755 -18.849092 0.000000 0.000000 0.000000 21.143505 8.102377 -12.348152 -1.886107 -8.624718 24.628357 0.012002 11.416964 -7.830509 -1.159964 -6.837380 19.234579 0.100297 0.831920 -6.553154 1.028383 1.038986 2.077471 1.133130 0.493611 5.823576 -2.663316 -0.699802 -16.971728 0.770584 -0.578737 20.690891 0.624665 -0.451433 9.334812 0.000000 0.000000 0.000000 2.350196 2.214372 -34.068227 16.980169 -26.831578 4.078367 18.117184 -4.871566 -33.285499 0.000000 0.000000 0.000000 -7.125000 0.000000 0.000000 -17.926006 63.748830 8.280695 0.000000 0.000000 0.000000 -8.439601 -2.483391 20.655744 -37.406973 -46.456339 -16.534393 -22.239607 -4.743103 -28.908293 0.000000 0.000000 0.000000 7.125000 0.000000 0.000000 4.921959 -0.739978 5.003313
10.191142 18.473886 -2.603050 107.932890 -87.656997 -96.334748 0.000000 0.000000 0.000000 -14.217398 -16.894669 -35.667138 0.945001 6.191235 17.340348 0.415091 5.154670 -15.158517 0.610992 -5.002915 -13.916815 0.000000 0.000000 0.000000 22.318856 6.397149 -8.439011 -1.310132 -7.250320 20.459251 0.093647 11.169683 -6.343123 -0.828409 -5.806844 16.225061 0.329741 1.024459 -6.459470 1.209920 1.259927 2.337041 1.220911 0.604497 6.040372 -3.487156 -0.895443 -16.773504 1.217229 -0.815700 22.546667 0.887632 -0.617949 9.963017 0.000000 0.000000 0.000000 1.616244 3.160114 -33.622877 17.025508 -26.891403 4.098871 18.297657 -5.006578 -33.841295 0.000000 0.000000 0.000000 -7.125000 0.000000 0.000000 -18.231444 64.320974 8.669294 0.000000 0.000000 0.000000 -6.546070 -2.383607 22.981565 -36.734715 -46.011831 -16.048891 -21.748030 -3.819301 -29.220529 0.000000 0.000000 0.000000 7.125000 0.000000 0.000000 5.249488 -0.961805 5.359267
8.977154 18.289067 -2.467130 173.165309 -85.624107 -161.653439 0.000000 0.000000 0.000000 -14.059303 -15.451037 -33.582352 1.098365 6.659467 18.710315 0.134365 6.814919 -12.464304 0.714360 -5.400633 -15.054970 0.000000 0.000000 0.000000 22.879424 4.272655 -4.901167 -1.351456 -7.359323 20.784275 0.369966 13.217104 -3.435793 -0.025233 -0.998522 2.745005 0.164785 1.020105 -7.200840 1.015622 1.278487 2.231517 1.128450 0.611077 6.353852 -6.747896 -4.674303 -14.797622 2.213004 -5.517167 19.869906 1.187362 -2.927861 8.922261 0.000000 0.000000 0.000000 1.850859 3.809564 -31.426805 16.596091 -26.322163 3.906562 18.239693 -4.481217 -33.954383 0.000000 0.000000 0.000000 -7.125000 0.000000 0.000000 -18.404260 64.411472 8.792936 0.000000 0.000000 0.000000 -4.465531 -0.035991 25.710636 -32.411309 -42.872576 -13.019821 -19.254644 0.667764 -29.560057 0.000000 0.000000 0.000000 7.125000 0.000000 0.000000 6.741136 -0.826515 6.885365
7.405791 18.354641 -2.207598 172.590962 -84.018998 -161.295254 0.000000 0.000000 0.000000 -17.202703 -11.557290 -32.925652 1.875811 8.602490 24.559471 0.056405 6.438702 -10.508031 0.222241 -3.034322 -8.374272 0.000000 0.000000 0.000000 21.064848 6.079394 0.176147 -1.615169 -8.013266 22.754690 0.087562 7.652250 -3.151845 -4.713695 13.049458 -39.561530 -2.333816 0.310565 -8.112625 0.092252 0.653317 1.769069 1.497409 0.230359 6.382703 -10.650790 -9.020296 -11.938205 6.050832 -11.531936 16.061751 2.435509 -5.657838 7.901030 0.000000 0.000000 0.000000 2.967173 1.253573 -29.894735 14.518034 -23.470453 3.031353 18.024080 -2.348520 -34.327081 0.000000 0.000000 0.000000 -7.125000 0.000000 0.000000 -19.010088 64.701089 9.220384 0.000000 0.000000 0.000000 -3.381175 3.777291 24.119207 -23.968725 -35.129711 -7.689204 -19.854516 2.927627 -29.389321 0.000000 0.000000 0.000000 7.125000 0.000000 0.000000 6.372317 -0.765425 6.497027
5.887805 18.449520 -1.853548 172.022701 -82.204876 -161.671302 0.000000 0.000000 0.000000 -20.041819 -11.140361 -27.656362 2.296145 9.457430 27.236856 0.458820 3.967406 -14.868002 0.144620 -2.450695 -6.752924 0.000000 0.000000 0.000000 16.941762 4.804045 -7.242636 -5.373699 -13.791864 42.411535 0.236712 9.089836 6.515222 -12.189791 18.469695 -66.589044 -3.913245 -0.100766 -8.411371 -0.302299 0.301814 1.682042 1.926532 0.003031 6.476047 -11.042019 -9.277430 -11.641522 7.028498 -11.995253 15.503201 2.771723 -5.824379 7.792897 0.000000 0.000000 0.000000 3.886537 -3.849311 -31.838836 15.910209 -25.398716 3.607350 18.422464 -3.165017 -33.974180 0.000000 0.000000 0.000000 -7.125000 0.000000 0.000000 -18.213965 64.479882 8.728096 0.000000 0.000000 0.000000 -4.593351 5.679990 17.591521 -17.125369 -27.022728 -4.144119 -16.126398 11.474606 -28.527072 0.000000 0.000000 0.000000 7.125000 0.000000 0.000000 8.460948 0.758385 8.441151
